<svg width="596" height="392" viewBox="0 0 596 392" fill="none" xmlns="http://www.w3.org/2000/svg">
<rect x="1.5" y="1.5" width="592" height="387" fill="#D9ACF5" stroke="black" stroke-width="3"/>
<line x1="1" y1="-1" x2="646.546" y2="-1" transform="matrix(-0.842283 0.539035 -0.552024 -0.833828 545.417 0)" stroke="black" stroke-width="2" stroke-linecap="round"/>
<line x1="1" y1="-1" x2="646.546" y2="-1" transform="matrix(-0.842283 0.539035 -0.552024 -0.833828 595 39)" stroke="black" stroke-width="2" stroke-linecap="round"/>
<line x1="1" y1="-1" x2="586.915" y2="-1" transform="matrix(-0.843377 0.537323 -0.550305 -0.834964 495.833 0)" stroke="black" stroke-width="2" stroke-linecap="round"/>
<line x1="1" y1="-1" x2="586.915" y2="-1" transform="matrix(-0.843377 0.537323 -0.550305 -0.834964 595 72.15)" stroke="black" stroke-width="2" stroke-linecap="round"/>
<line x1="1" y1="-1" x2="528.578" y2="-1" transform="matrix(-0.850143 0.526552 -0.539486 -0.841994 450.217 0)" stroke="black" stroke-width="2" stroke-linecap="round"/>
<line x1="1" y1="-1" x2="528.578" y2="-1" transform="matrix(-0.850143 0.526552 -0.539486 -0.841994 595 109.2)" stroke="black" stroke-width="2" stroke-linecap="round"/>
<line x1="1" y1="-1" x2="454.086" y2="-1" transform="matrix(-0.849839 0.527043 -0.53998 -0.841678 386.75 0)" stroke="black" stroke-width="2" stroke-linecap="round"/>
<line x1="1" y1="-1" x2="454.086" y2="-1" transform="matrix(-0.849839 0.527043 -0.53998 -0.841678 595 148.2)" stroke="black" stroke-width="2" stroke-linecap="round"/>
<line x1="1" y1="-1" x2="389.064" y2="-1" transform="matrix(-0.854218 0.519914 -0.532813 -0.846233 333.2 0)" stroke="black" stroke-width="2" stroke-linecap="round"/>
<line x1="1" y1="-1" x2="389.064" y2="-1" transform="matrix(-0.854218 0.519914 -0.532813 -0.846233 595 185.25)" stroke="black" stroke-width="2" stroke-linecap="round"/>
<line x1="1" y1="-1" x2="328.794" y2="-1" transform="matrix(-0.853968 0.520325 -0.533226 -0.845972 281.633 0)" stroke="black" stroke-width="2" stroke-linecap="round"/>
<line x1="1" y1="-1" x2="328.794" y2="-1" transform="matrix(-0.853968 0.520325 -0.533226 -0.845972 595 216.45)" stroke="black" stroke-width="2" stroke-linecap="round"/>
<line x1="1" y1="-1" x2="267.513" y2="-1" transform="matrix(-0.856818 0.515618 -0.528491 -0.848939 230.067 0)" stroke="black" stroke-width="2" stroke-linecap="round"/>
<line x1="1" y1="-1" x2="267.513" y2="-1" transform="matrix(-0.856818 0.515618 -0.528491 -0.848939 593.017 251.55)" stroke="black" stroke-width="2" stroke-linecap="round"/>
<line x1="1" y1="-1" x2="194.032" y2="-1" transform="matrix(-0.854218 0.519914 -0.532813 -0.846233 166.6 0)" stroke="black" stroke-width="2" stroke-linecap="round"/>
<line x1="1" y1="-1" x2="194.032" y2="-1" transform="matrix(-0.854218 0.519914 -0.532813 -0.846233 593.017 286.65)" stroke="black" stroke-width="2" stroke-linecap="round"/>
<line x1="1" y1="-1" x2="132.756" y2="-1" transform="matrix(-0.860022 0.510257 -0.523095 -0.852274 115.033 0)" stroke="black" stroke-width="2" stroke-linecap="round"/>
<line x1="1" y1="-1" x2="132.756" y2="-1" transform="matrix(-0.860022 0.510257 -0.523095 -0.852274 593.017 319.8)" stroke="black" stroke-width="2" stroke-linecap="round"/>
<line x1="1" y1="-1" x2="65.3859" y2="-1" transform="matrix(-0.866399 0.499353 -0.512111 -0.858919 57.5167 0)" stroke="black" stroke-width="2" stroke-linecap="round"/>
<line x1="1" y1="-1" x2="65.3859" y2="-1" transform="matrix(-0.866399 0.499353 -0.512111 -0.858919 595 354.9)" stroke="black" stroke-width="2" stroke-linecap="round"/>
<line x1="1" y1="-1" x2="707.697" y2="-1" transform="matrix(-0.83677 0.547554 -0.56057 -0.828107 593.017 0)" stroke="black" stroke-width="2" stroke-linecap="round"/>
</svg>
